<svg width="24" height="24" viewBox="0 0 24 24" fill="none" xmlns="http://www.w3.org/2000/svg">
<path d="M11.235 2.37377C10.867 2.52577 10.538 2.85577 9.87898 3.51377C9.21998 4.17377 8.88998 4.50277 8.73898 4.86977C8.63843 5.11246 8.58668 5.37258 8.58668 5.63527C8.58668 5.89796 8.63843 6.15808 8.73898 6.40077C8.88998 6.76877 9.21898 7.09777 9.87898 7.75677C10.537 8.41577 10.867 8.74577 11.235 8.89677C11.7248 9.09955 12.2751 9.09955 12.765 8.89677C13.133 8.74577 13.462 8.41677 14.121 7.75677C14.781 7.09777 15.109 6.76877 15.261 6.40077C15.4638 5.91093 15.4638 5.36061 15.261 4.87077C15.109 4.50277 14.781 4.17377 14.121 3.51477C13.462 2.85477 13.133 2.52577 12.765 2.37377C12.2751 2.17098 11.7248 2.17098 11.235 2.37377ZM4.86998 8.73777C4.50298 8.88977 4.17298 9.21877 3.51498 9.87777C2.85498 10.5378 2.52598 10.8668 2.37398 11.2338C2.27343 11.4765 2.22168 11.7366 2.22168 11.9993C2.22168 12.262 2.27343 12.5221 2.37398 12.7648C2.52598 13.1328 2.85598 13.4618 3.51398 14.1208C4.17398 14.7798 4.50298 15.1088 4.86998 15.2608C5.11266 15.3613 5.37278 15.4131 5.63548 15.4131C5.89817 15.4131 6.15829 15.3613 6.40098 15.2608C6.76898 15.1088 7.09798 14.7798 7.75698 14.1208C8.41698 13.4618 8.74498 13.1328 8.89698 12.7648C9.09976 12.2749 9.09976 11.7246 8.89698 11.2348C8.74498 10.8668 8.41698 10.5368 7.75698 9.87777C7.09798 9.21877 6.76898 8.88977 6.40098 8.73777C5.91113 8.53498 5.35982 8.53498 4.86998 8.73777ZM16.243 9.87777C15.584 10.5378 15.255 10.8668 15.103 11.2338C15.0024 11.4765 14.9507 11.7366 14.9507 11.9993C14.9507 12.262 15.0024 12.5221 15.103 12.7648C15.255 13.1328 15.584 13.4618 16.243 14.1208C16.902 14.7798 17.232 15.1088 17.599 15.2608C18.0888 15.4636 18.6391 15.4636 19.129 15.2608C19.497 15.1088 19.827 14.7798 20.486 14.1208C21.145 13.4618 21.473 13.1328 21.626 12.7648C21.8288 12.2749 21.8288 11.7246 21.626 11.2348C21.473 10.8668 21.145 10.5368 20.486 9.87777C19.826 9.21877 19.497 8.88977 19.13 8.73777C18.8873 8.63722 18.6272 8.58547 18.3645 8.58547C18.1018 8.58547 17.8417 8.63722 17.599 8.73777C17.232 8.88977 16.902 9.21877 16.243 9.87777ZM11.235 15.1018C10.867 15.2538 10.538 15.5838 9.87898 16.2418C9.21998 16.9018 8.88998 17.2308 8.73898 17.5988C8.53619 18.0886 8.53619 18.6389 8.73898 19.1288C8.88998 19.4968 9.21898 19.8258 9.87898 20.4848C10.537 21.1438 10.867 21.4738 11.235 21.6248C11.7248 21.8276 12.2751 21.8276 12.765 21.6248C13.133 21.4738 13.462 21.1448 14.121 20.4848C14.781 19.8258 15.109 19.4968 15.261 19.1288C15.464 18.6388 15.464 18.0888 15.261 17.5988C15.109 17.2308 14.781 16.9008 14.121 16.2428C13.462 15.5828 13.133 15.2538 12.765 15.1018C12.2751 14.899 11.7248 14.899 11.235 15.1018Z" stroke="black" stroke-width="2" stroke-linecap="round" stroke-linejoin="round"/>
</svg>
