<svg width="41" height="40" viewBox="0 0 41 40" fill="none" xmlns="http://www.w3.org/2000/svg">
<path d="M23.6665 12.7778V27.2222C23.6665 27.7389 23.6665 27.9967 23.7045 28.2111C23.7815 28.6422 23.9719 29.0383 24.2516 29.3492C24.5312 29.6601 24.8875 29.8719 25.2755 29.9578C25.4695 30 25.7015 30 26.1655 30C26.6305 30 26.8635 30 27.0575 29.9578C27.4453 29.8717 27.8014 29.6598 28.0809 29.349C28.3603 29.0381 28.5505 28.6421 28.6275 28.2111C28.6665 28 28.6665 27.7444 28.6665 27.2356V12.7644C28.6665 12.2567 28.6665 12.0011 28.6285 11.7878C28.551 11.3569 28.3604 10.9612 28.0806 10.6507C27.8008 10.3402 27.4444 10.1289 27.0565 10.0433C26.8635 10 26.6315 10 26.1665 10C25.7015 10 25.4695 10 25.2765 10.0422C24.8884 10.1277 24.5319 10.3392 24.2521 10.6499C23.9722 10.9606 23.7817 11.3566 23.7045 11.7878C23.6665 12.0033 23.6665 12.2611 23.6665 12.7778ZM12.6665 12.7778V27.2222C12.6665 27.7389 12.6665 27.9967 12.7045 28.2111C12.7815 28.6422 12.9719 29.0383 13.2516 29.3492C13.5312 29.6601 13.8875 29.8719 14.2755 29.9578C14.4695 30 14.7015 30 15.1655 30C15.6305 30 15.8635 30 16.0575 29.9578C16.4453 29.8717 16.8014 29.6598 17.0809 29.349C17.3603 29.0381 17.5505 28.6421 17.6275 28.2111C17.6665 28 17.6665 27.7444 17.6665 27.2356V12.7644C17.6665 12.2567 17.6665 12.0011 17.6285 11.7878C17.5509 11.3571 17.3601 10.9617 17.0803 10.6514C16.8005 10.3411 16.4443 10.1299 16.0565 10.0444C15.8635 10 15.6315 10 15.1665 10C14.7015 10 14.4695 10 14.2765 10.0422C13.8881 10.1276 13.5313 10.3391 13.2512 10.6501C12.9712 10.961 12.7806 11.3574 12.7035 11.7889C12.6665 12.0033 12.6665 12.2611 12.6665 12.7778Z" stroke="white" stroke-width="2" stroke-linecap="round" stroke-linejoin="round"/>
</svg>
