<svg width="40" height="40" viewBox="0 0 40 40" fill="none" xmlns="http://www.w3.org/2000/svg">
<g opacity="0.5">
<g clip-path="url(#clip0_1085_1621)">
<path d="M23.3333 23.3333L30 30M17.7778 25.5556C16.7564 25.5556 15.745 25.3544 14.8014 24.9635C13.8577 24.5726 13.0003 23.9997 12.2781 23.2775C11.5558 22.5553 10.9829 21.6978 10.592 20.7542C10.2012 19.8106 10 18.7992 10 17.7778C10 16.7564 10.2012 15.745 10.592 14.8014C10.9829 13.8577 11.5558 13.0003 12.2781 12.2781C13.0003 11.5558 13.8577 10.9829 14.8014 10.592C15.745 10.2012 16.7564 10 17.7778 10C19.8406 10 21.8189 10.8194 23.2775 12.2781C24.7361 13.7367 25.5556 15.715 25.5556 17.7778C25.5556 19.8406 24.7361 21.8189 23.2775 23.2775C21.8189 24.7361 19.8406 25.5556 17.7778 25.5556Z" stroke="black" stroke-width="2" stroke-linecap="round" stroke-linejoin="round"/>
</g>
</g>
<defs>
<clipPath id="clip0_1085_1621">
<rect width="22" height="22" fill="white" transform="translate(9 9)"/>
</clipPath>
</defs>
</svg>
