<svg width="26" height="26" viewBox="0 0 26 26" fill="none" xmlns="http://www.w3.org/2000/svg">
<path d="M9.5387 13.4563V5.70192C9.5387 5.33899 9.68415 4.99093 9.94306 4.7343C10.202 4.47767 10.5531 4.3335 10.9193 4.3335C11.2854 4.3335 11.6366 4.47767 11.8955 4.7343C12.1544 4.99093 12.2998 5.33899 12.2998 5.70192V12.544M12.2998 12.0879V10.2633C12.2998 9.9004 12.4453 9.55234 12.7042 9.29571C12.9631 9.03908 13.3143 8.89491 13.6804 8.89491C14.0466 8.89491 14.3977 9.03908 14.6566 9.29571C14.9155 9.55234 15.061 9.9004 15.061 10.2633V12.544M15.061 11.1756C15.061 10.8127 15.2064 10.4646 15.4653 10.208C15.7242 9.95136 16.0754 9.80719 16.4415 9.80719C16.8077 9.80719 17.1589 9.95136 17.4178 10.208C17.6767 10.4646 17.8221 10.8127 17.8221 11.1756V12.544" stroke="white" stroke-width="1.5" stroke-linecap="round" stroke-linejoin="round"/>
<path d="M17.8221 12.0882C17.8221 11.7252 17.9675 11.3772 18.2265 11.1205C18.4854 10.8639 18.8365 10.7197 19.2027 10.7197C19.5688 10.7197 19.92 10.8639 20.1789 11.1205C20.4378 11.3772 20.5832 11.7252 20.5832 12.0882V16.1934C20.5832 17.6451 20.0014 19.0374 18.9658 20.0639C17.9302 21.0904 16.5256 21.6671 15.061 21.6671H13.2202H13.4116C12.4971 21.6673 11.5968 21.4423 10.7917 21.0124C9.98651 20.5824 9.30169 19.961 8.79869 19.204L8.61829 18.9303C8.33113 18.4933 7.32332 16.7517 5.59392 13.7047C5.41762 13.3941 5.37053 13.0276 5.46266 12.6831C5.55479 12.3386 5.77887 12.0433 6.08725 11.8601C6.41571 11.6647 6.80061 11.5838 7.1808 11.63C7.561 11.6763 7.9147 11.8472 8.18571 12.1155L9.53867 13.4566" stroke="white" stroke-width="1.5" stroke-linecap="round" stroke-linejoin="round"/>
</svg>
