<svg width="56" height="56" xmlns="http://www.w3.org/2000/svg">

 <g>
  <title>background</title>
  <rect fill="none" id="canvas_background" height="402" width="582" y="-1" x="-1"/>
 </g>
 <g>
  <title>Layer 1</title>
  <path id="svg_1" fill="#d36909" d="m37.2469,22.9972c0.141,-0.0703 0.2947,-0.1114 0.4519,-0.1207c0.1573,-0.0093 0.3148,0.0133 0.463,0.0665c0.1483,0.0532 0.2842,0.1359 0.3997,0.2431c0.1154,0.1071 0.208,0.2366 0.2721,0.3805l9.7836,21.938c1.5564,3.4883 -1.9016,7.1096 -5.138,5.3806l-13.776,-7.3546c-1.0733,-0.5717 -2.3333,-0.5717 -3.4043,0l-13.776,7.3546c-3.23632,1.729 -6.69432,-1.89 -5.13799,-5.3806l3.66799,-8.225c0.4401,-0.9864 1.2086,-1.7896 2.1747,-2.2727l24.0193,-12.0097z"/>
  <path id="svg_2" fill="#d36909" d="m35.9098,19.7536c0.2692,-0.134 0.4763,-0.3669 0.5781,-0.6499c0.1017,-0.283 0.0902,-0.5944 -0.0321,-0.8691l-5.019,-11.25371c-1.3767,-3.087 -5.495,-3.087 -6.8717,0l-9.2587,20.76201c-0.0979,0.2196 -0.1256,0.464 -0.0793,0.6999c0.0463,0.2359 0.1644,0.4518 0.338,0.618c0.1737,0.1663 0.3945,0.2748 0.6322,0.3108c0.2377,0.036 0.4807,-0.0023 0.6958,-0.1097l19.0167,-9.5083z" opacity="0.5"/>
  <line stroke-linecap="undefined" stroke-linejoin="undefined" id="svg_4" y2="4.335121" x2="27.850746" y1="0.30527" x1="27.850746" stroke-width="1.5" stroke="#000" fill="none"/>
  <line transform="rotate(-15 22.925373077392578,3.1410908699035707) " stroke-linecap="undefined" stroke-linejoin="undefined" id="svg_6" y2="6.126166" x2="22.925374" y1="0.156017" x1="22.925374" fill-opacity="null" stroke-opacity="null" stroke-width="1.5" stroke="#000" fill="none"/>
  <line transform="rotate(15 32.776119232177734,3.141091346740722) " stroke-linecap="undefined" stroke-linejoin="undefined" id="svg_7" y2="6.126166" x2="32.776118" y1="0.156017" x1="32.776118" fill-opacity="null" stroke-opacity="null" stroke-width="1.5" stroke="#000" fill="none"/>
 </g>
</svg>