<svg width="27" height="26" viewBox="0 0 27 26" fill="none" xmlns="http://www.w3.org/2000/svg">
<path d="M12.853 14.4738V10.5439M21.5001 7.59657L19.5785 5.63166M10.9315 3.66675H14.7746M12.853 22.3334C10.8145 22.3334 8.85946 21.5053 7.41801 20.0314C5.97655 18.5574 5.16675 16.5583 5.16675 14.4738C5.16675 12.3893 5.97655 10.3901 7.41801 8.91615C8.85946 7.44218 10.8145 6.61412 12.853 6.61412C14.8916 6.61412 16.8466 7.44218 18.288 8.91615C19.7295 10.3901 20.5393 12.3893 20.5393 14.4738C20.5393 16.5583 19.7295 18.5574 18.288 20.0314C16.8466 21.5053 14.8916 22.3334 12.853 22.3334Z" stroke="white" stroke-width="1.5" stroke-linecap="round" stroke-linejoin="round"/>
</svg>
