<svg width="32" height="32" viewBox="0 0 32 32" fill="none" xmlns="http://www.w3.org/2000/svg">
<path d="M24.9098 12.7361L24.5192 12.5197C24.1755 12.3438 23.8864 12.0783 23.6827 11.7517C23.6645 11.7231 23.6474 11.6923 23.6133 11.6329C23.3834 11.2658 23.2717 10.8376 23.2932 10.4056L23.2996 9.95482C23.3124 9.23351 23.3188 8.87074 23.2163 8.54615C23.1258 8.25733 22.9741 7.99112 22.7714 7.76544C22.543 7.51086 22.2261 7.32842 21.5912 6.96564L21.0641 6.66333C20.4324 6.30161 20.1155 6.12023 19.7793 6.05128C19.4824 5.99016 19.1757 5.99269 18.8798 6.0587C18.5458 6.13296 18.2332 6.31965 17.609 6.69091L17.6057 6.69303L17.228 6.91685C17.1683 6.95291 17.1373 6.96988 17.1074 6.98686C16.8108 7.15127 16.48 7.24143 16.1396 7.25204C16.1055 7.25416 16.0703 7.25416 16.0009 7.25416L15.8622 7.2531C15.5217 7.24244 15.1887 7.15078 14.8912 6.98579C14.8613 6.96988 14.8325 6.95185 14.7727 6.91579L14.3918 6.68879C13.7633 6.31328 13.4485 6.12659 13.1124 6.05128C12.8154 5.98512 12.5075 5.98295 12.2096 6.04491C11.8724 6.11492 11.5566 6.29737 10.9238 6.66227L10.9206 6.66333L10.3999 6.96352L10.3946 6.96776C9.76713 7.32841 9.45235 7.51086 9.22613 7.76438C9.02454 7.98968 8.87357 8.2551 8.7833 8.54297C8.68193 8.86862 8.68727 9.23139 8.70007 9.95694L8.70754 10.4067C8.70754 10.4756 8.71074 10.5096 8.70967 10.5425C8.70404 10.9278 8.59301 11.3044 8.38849 11.6319C8.35328 11.6913 8.33727 11.721 8.31913 11.7485C8.13921 12.0372 7.8922 12.2788 7.59887 12.4529L7.47935 12.5197L7.09415 12.7318C6.45178 13.0851 6.13059 13.2622 5.89797 13.5147C5.69116 13.7373 5.5347 14.0013 5.43914 14.289C5.33243 14.6147 5.33243 14.9785 5.3335 15.7083L5.33563 16.3055C5.3367 17.03 5.33883 17.3917 5.44661 17.7152C5.54177 18.0012 5.69709 18.2637 5.90224 18.4853C6.13486 18.7357 6.45284 18.9117 7.08988 19.2639L7.47189 19.475C7.53698 19.5111 7.57005 19.528 7.601 19.5471C7.93539 19.7464 8.20848 20.0329 8.39062 20.3756L8.46212 20.5029C8.64235 20.8412 8.72716 21.2216 8.70754 21.6039L8.70007 22.0356C8.68727 22.7633 8.68193 23.1282 8.78437 23.4539C8.87507 23.7424 9.02659 24.0086 9.22933 24.2346C9.45768 24.4891 9.77567 24.6705 10.4095 25.0344L10.9366 25.3367C11.5694 25.6984 11.8852 25.8798 12.2214 25.9487C12.5183 26.0098 12.825 26.0073 13.1209 25.9413C13.456 25.8671 13.7686 25.6804 14.395 25.307L14.7727 25.0821C15.0981 24.8739 15.4743 24.7576 15.8611 24.7458H16.1385C16.4779 24.7565 16.8108 24.8487 17.1096 25.0132L17.2077 25.0715L17.609 25.3112C18.2385 25.6867 18.5522 25.8734 18.8884 25.9477C19.1852 26.0145 19.493 26.0173 19.7911 25.9562C20.1272 25.8861 20.4452 25.7026 21.078 25.3377L21.6062 25.0333C22.2336 24.6705 22.5484 24.4891 22.7746 24.2356C22.9773 24.0097 23.1267 23.7445 23.2174 23.457C23.3188 23.1335 23.3134 22.7739 23.3006 22.059L23.2921 21.5922C23.2709 21.161 23.3826 20.7336 23.6122 20.3671L23.6816 20.2504C23.8615 19.9617 24.1085 19.7202 24.4019 19.5461L24.5192 19.4814L24.5214 19.4803L24.9066 19.2682C25.5489 18.9139 25.8701 18.7378 26.1038 18.4853C26.3108 18.2626 26.4666 17.9974 26.5616 17.711C26.6683 17.3875 26.6683 17.0247 26.6662 16.3034L26.664 15.6945C26.6629 14.97 26.6619 14.6072 26.5541 14.2837C26.4584 13.9981 26.3028 13.7359 26.0974 13.5147C25.8659 13.2643 25.5479 13.0883 24.9119 12.7372L24.9098 12.7361Z" stroke="black" stroke-width="2" stroke-linecap="round" stroke-linejoin="round"/>
<path d="M11.7316 16.0001C11.7316 17.1254 12.1813 18.2046 12.9818 19.0003C13.7822 19.796 14.8679 20.243 15.9999 20.243C17.1319 20.243 18.2175 19.796 19.018 19.0003C19.8184 18.2046 20.2681 17.1254 20.2681 16.0001C20.2681 14.8748 19.8184 13.7955 19.018 12.9998C18.2175 12.2041 17.1319 11.7571 15.9999 11.7571C14.8679 11.7571 13.7822 12.2041 12.9818 12.9998C12.1813 13.7955 11.7316 14.8748 11.7316 16.0001Z" stroke="black" stroke-width="2" stroke-linecap="round" stroke-linejoin="round"/>
</svg>
