<svg width="40" height="40" viewBox="0 0 40 40" fill="none" xmlns="http://www.w3.org/2000/svg">
<path fill-rule="evenodd" clip-rule="evenodd" d="M21.0341 8.59367C21.0341 8.02013 20.5692 7.55518 19.9956 7.55518C19.4221 7.55518 18.9571 8.02013 18.9571 8.59367V18.9786C18.9571 19.5522 19.4221 20.0171 19.9956 20.0171C20.5692 20.0171 21.0341 19.5522 21.0341 18.9786V8.59367ZM26.7112 13.5146C26.482 13.2859 26.3414 12.9801 26.3414 12.6564C26.3414 11.7527 27.332 11.2343 27.9865 11.8575C30.1719 13.9383 31.5339 16.876 31.5339 20.1317C31.5339 26.4407 26.4195 31.5552 20.1105 31.5552C13.8015 31.5552 8.68701 26.4407 8.68701 20.1317C8.68701 16.876 10.049 13.9383 12.2344 11.8575C12.8889 11.2343 13.8795 11.7527 13.8795 12.6564C13.8795 12.9801 13.7389 13.2859 13.5098 13.5146C11.8135 15.2066 10.764 17.5466 10.764 20.1317C10.764 25.2936 14.9486 29.4782 20.1105 29.4782C25.2724 29.4782 29.4569 25.2936 29.4569 20.1317C29.4569 17.5466 28.4074 15.2066 26.7112 13.5146Z" fill="white"/>
</svg>
