<svg width="41" height="40" viewBox="0 0 41 40" fill="none" xmlns="http://www.w3.org/2000/svg">
<path d="M12.5 27.277V12.7243C12.5 11.5238 12.5 10.9235 12.7267 10.5688C12.8246 10.4155 12.9499 10.2865 13.0948 10.1898C13.2397 10.093 13.4009 10.0307 13.5684 10.0067C13.9568 9.95211 14.4323 10.2332 15.3818 10.798L27.6345 18.0736L27.6394 18.0764C28.6895 18.6998 29.2151 19.0123 29.3879 19.427C29.5374 19.7899 29.5374 20.2087 29.3879 20.5716C29.2151 20.9877 28.6883 21.3015 27.6358 21.9264L15.3831 29.202C14.431 29.7668 13.9568 30.0479 13.5697 29.9933C13.4019 29.9695 13.2404 29.9072 13.0953 29.8105C12.9503 29.7138 12.8247 29.5846 12.7267 29.4312C12.5 29.0765 12.5 28.4776 12.5 27.277Z" stroke="white" stroke-width="2" stroke-linecap="round" stroke-linejoin="round"/>
</svg>
