<svg width="41" height="40" viewBox="0 0 41 40" fill="none" xmlns="http://www.w3.org/2000/svg">
<path d="M27.1667 32H13.8333M27.1667 32H28.2373C29.728 32 30.4733 32 31.0427 31.7093C31.5453 31.4533 31.9533 31.0453 32.2093 30.544C32.5 29.9747 32.5 29.228 32.5 27.7373V16.2933C32.5 15.6933 32.5 15.3933 32.436 15.108C32.3793 14.8534 32.2854 14.6086 32.1573 14.3813C32.016 14.128 31.816 13.908 31.424 13.472L27.7507 9.38933C27.296 8.88533 27.0653 8.62933 26.7893 8.44533C26.5404 8.28016 26.2654 8.15801 25.976 8.084C25.6507 8 25.3 8 24.6 8H12.7667C11.2733 8 10.5267 8 9.956 8.29067C9.4542 8.54625 9.04625 8.9542 8.79067 9.456C8.5 10.0267 8.5 10.7733 8.5 12.2667V27.7333C8.5 29.2267 8.5 29.9733 8.79067 30.5427C9.04667 31.0453 9.45333 31.4533 9.956 31.7093C10.5253 32 11.272 32 12.7627 32H13.8333M27.1667 32V26.9293C27.1667 25.4387 27.1667 24.692 26.876 24.1227C26.6199 23.6208 26.2115 23.2128 25.7093 22.9573C25.14 22.6667 24.3933 22.6667 22.9 22.6667H18.1C16.6067 22.6667 15.86 22.6667 15.2893 22.9573C14.7875 23.2129 14.3796 23.6209 14.124 24.1227C13.8333 24.6933 13.8333 25.44 13.8333 26.9333V32M24.5 13.3333H16.5" stroke="white" stroke-width="2" stroke-linecap="round" stroke-linejoin="round"/>
</svg>
