<svg width="65" height="65" viewBox="0 0 65 65" fill="none" xmlns="http://www.w3.org/2000/svg">
<path d="M8.08813 45.8332V19.4116C8.08813 16.392 8.08813 14.8822 8.67588 13.7283C9.19353 12.7119 10.0158 11.8896 11.0323 11.3719C12.1862 10.7842 13.696 10.7842 16.7156 10.7842H47.9901C51.0097 10.7842 52.5195 10.7842 53.6734 11.3719C54.688 11.8889 55.5128 12.7137 56.0298 13.7283C56.6175 14.8795 56.6175 16.3893 56.6175 19.4035V45.3021C56.6175 46.6097 56.6175 47.6342 56.569 48.4673M8.08813 45.8332C8.08813 48.4969 8.12318 49.8935 8.67588 50.9746C9.19353 51.991 10.0158 52.816 11.0323 53.3337C12.1835 53.9214 13.6933 53.9214 16.7075 53.9214H48.0009C51.0151 53.9214 52.5222 53.9214 53.6734 53.3337C54.6872 52.816 55.5122 51.991 56.0298 50.9746C56.3614 50.3222 56.507 49.5565 56.569 48.4673M8.08813 45.8332L20.943 30.8376L20.9457 30.8322C22.0862 29.5031 22.6577 28.8371 23.3345 28.5945C23.9292 28.384 24.5789 28.3888 25.1705 28.608C25.8445 28.8587 26.4107 29.5327 27.5323 30.8807L34.7335 39.5217C35.7742 40.7727 36.2972 41.3981 36.9335 41.6516C37.4937 41.872 38.1116 41.8986 38.6886 41.7271C39.3465 41.533 39.9288 40.9533 41.0854 39.7967L42.4254 38.4567C43.6036 37.2758 44.194 36.6881 44.8626 36.494C45.449 36.3241 46.0757 36.3593 46.6394 36.5937C47.281 36.8606 47.8014 37.5104 48.8448 38.8099L56.569 48.4673M56.569 48.4673L56.6175 48.5293M40.4411 26.9606C39.726 26.9606 39.0403 26.6766 38.5347 26.171C38.029 25.6654 37.745 24.9796 37.745 24.2646C37.745 23.5495 38.029 22.8638 38.5347 22.3582C39.0403 21.8525 39.726 21.5685 40.4411 21.5685C41.1561 21.5685 41.8419 21.8525 42.3475 22.3582C42.8531 22.8638 43.1372 23.5495 43.1372 24.2646C43.1372 24.9796 42.8531 25.6654 42.3475 26.171C41.8419 26.6766 41.1561 26.9606 40.4411 26.9606Z" stroke="#9E9EA5" stroke-width="4" stroke-linecap="round" stroke-linejoin="round"/>
</svg>
