<svg width="22" height="18" viewBox="0 0 22 18" fill="none" xmlns="http://www.w3.org/2000/svg">
<path d="M17.8205 1C18.8195 2.02256 19.6171 3.25891 20.1639 4.63278C20.7107 6.00665 20.9953 7.48892 20.9999 8.98813C21.0046 10.4873 20.7294 11.9717 20.1911 13.3497C19.6529 14.7276 18.8631 15.9699 17.8705 17M15.0934 4.2101C15.6929 4.82364 16.1715 5.56549 16.4997 6.38987C16.8278 7.21426 16.9986 8.10369 17.0014 9.0033C17.0042 9.90291 16.839 10.7936 16.516 11.6204C16.193 12.4473 15.7191 13.1927 15.1234 13.8108M6.48116 12.7649L8.15721 15.0399C9.03023 16.2252 9.46725 16.8189 9.84926 16.8837C10.0122 16.9111 10.1789 16.8939 10.3343 16.8336C10.4898 16.7733 10.6292 16.6717 10.7403 16.538C11.0013 16.2241 11.0013 15.4613 11.0013 13.937V4.11462C11.0013 2.59023 11.0013 1.82859 10.7413 1.51362C10.6301 1.37968 10.4905 1.27801 10.3349 1.21769C10.1792 1.15737 10.0124 1.14027 9.84926 1.16791C9.46625 1.23266 9.02923 1.82639 8.15721 3.01166L6.48016 5.28671C6.30415 5.52706 6.21615 5.64668 6.10715 5.73229C6.01045 5.80874 5.90207 5.8656 5.78714 5.9002C5.65714 5.93971 5.51713 5.93971 5.23612 5.93971H3.81308C3.05606 5.93971 2.67805 5.93971 2.37304 6.04946C2.07622 6.15681 1.80645 6.33901 1.58537 6.58144C1.36429 6.82386 1.19806 7.11977 1.1 7.44544C1 7.78126 1 8.1961 1 9.02579C1 9.85548 1 10.2703 1.1 10.6061C1.19806 10.9318 1.36429 11.2277 1.58537 11.4701C1.80645 11.7126 2.07622 11.8948 2.37304 12.0021C2.67805 12.1119 3.05606 12.1119 3.81308 12.1119H5.23612C5.51613 12.1119 5.65614 12.1119 5.78614 12.1514C5.90107 12.186 6.00945 12.2428 6.10615 12.3193C6.21615 12.4049 6.30515 12.5256 6.48116 12.7649Z" stroke="black" stroke-width="2" stroke-linecap="round" stroke-linejoin="round"/>
</svg>
