<svg width="24" height="24" viewBox="0 0 24 24" fill="none" xmlns="http://www.w3.org/2000/svg">
<path d="M15 20H9M4 13.8V8.2C4 7.08 4 6.52 4.218 6.092C4.41 5.715 4.715 5.41 5.092 5.218C5.52 5 6.08 5 7.2 5H16.8C17.92 5 18.48 5 18.907 5.218C19.284 5.41 19.59 5.715 19.782 6.092C20 6.519 20 7.079 20 8.197V13.803C20 14.921 20 15.48 19.782 15.907C19.59 16.2837 19.2837 16.59 18.907 16.782C18.48 17 17.921 17 16.803 17H7.197C6.079 17 5.519 17 5.092 16.782C4.71558 16.5899 4.40963 16.2836 4.218 15.907C4 15.48 4 14.92 4 13.8ZM14.5 11L10 8V14L14.5 11Z" stroke="black" stroke-width="2" stroke-linecap="round" stroke-linejoin="round"/>
</svg>
