<svg width="24" height="24" viewBox="0 0 24 24" fill="none" xmlns="http://www.w3.org/2000/svg">
<path d="M10 16H5.00001V21M14 8H19V3M4.58301 9.003C5.1438 7.61545 6.08257 6.41302 7.29264 5.53237C8.5027 4.65171 9.93553 4.12815 11.4283 4.02118C12.9211 3.9142 14.4139 4.2281 15.7372 4.92721C17.0605 5.62631 18.1611 6.68259 18.914 7.976M19.418 14.997C18.8573 16.3848 17.9186 17.5875 16.7084 18.4683C15.4982 19.3492 14.0652 19.8729 12.5723 19.9798C11.0793 20.0868 9.58628 19.7728 8.26289 19.0735C6.9395 18.3742 5.83884 17.3177 5.08601 16.024" stroke="black" stroke-width="2" stroke-linecap="round" stroke-linejoin="round"/>
</svg>
