<svg width="41" height="40" viewBox="0 0 41 40" fill="none" xmlns="http://www.w3.org/2000/svg">
<g clip-path="url(#clip0_931_2375)">
<path d="M11.3335 9V31M28.6192 17.7544V22.2456C28.6192 25.1166 28.6192 26.5513 28.0158 27.3794C27.7558 27.7358 27.4238 28.0334 27.0412 28.253C26.6587 28.4726 26.2342 28.6091 25.7954 28.6539C24.7771 28.7576 23.5372 28.0347 21.0575 26.5874L17.1949 24.3371C14.7576 22.915 13.5366 22.2031 13.1249 21.2744C12.9474 20.8736 12.8556 20.44 12.8556 20.0016C12.8556 19.5631 12.9474 19.1296 13.1249 18.7287C13.5382 17.8 14.7608 17.0866 17.2075 15.6581L21.0575 13.4141L21.0606 13.411C23.5372 11.9653 24.7771 11.2424 25.7954 11.3477C26.2343 11.3926 26.6589 11.5294 27.0414 11.7493C27.424 11.9691 27.756 12.2671 28.0158 12.6237C28.6192 13.4471 28.6192 14.885 28.6192 17.7529" stroke="white" stroke-width="2" stroke-linecap="round" stroke-linejoin="round"/>
</g>
<defs>
<clipPath id="clip0_931_2375">
<rect width="22" height="22" fill="white" transform="translate(9.3335 9)"/>
</clipPath>
</defs>
</svg>
