<svg width="40" height="40" viewBox="0 0 40 40" fill="none" xmlns="http://www.w3.org/2000/svg">
<g clip-path="url(#clip0_931_2377)">
<path d="M28.1846 9V31M10.8989 17.7544V22.2456C10.8989 25.1166 10.8989 26.5513 11.5023 27.3794C11.7622 27.7358 12.0943 28.0334 12.4768 28.253C12.8594 28.4726 13.2839 28.6091 13.7227 28.6539C14.741 28.7576 15.9809 28.0347 18.4606 26.5874L22.3231 24.3371C24.7604 22.915 25.9814 22.2031 26.3931 21.2744C26.5707 20.8736 26.6624 20.44 26.6624 20.0016C26.6624 19.5631 26.5707 19.1296 26.3931 18.7287C25.9799 17.8 24.7573 17.0866 22.3106 15.6581L18.4606 13.4141L18.4574 13.411C15.9809 11.9653 14.741 11.2424 13.7227 11.3477C13.2838 11.3926 12.8592 11.5294 12.4766 11.7493C12.0941 11.9691 11.7621 12.2671 11.5023 12.6237C10.8989 13.4471 10.8989 14.885 10.8989 17.7529" stroke="white" stroke-width="2" stroke-linecap="round" stroke-linejoin="round"/>
</g>
<defs>
<clipPath id="clip0_931_2377">
<rect width="22" height="22" fill="white" transform="matrix(-1 0 0 1 31 9)"/>
</clipPath>
</defs>
</svg>
