<svg width="20" height="20" viewBox="0 0 20 20" fill="none" xmlns="http://www.w3.org/2000/svg">
<path d="M2.092 5.27778H18.1M14 14.25H11M6 10L8 12.125L6 14.25M1 15.1V4.9C1 3.71 1 3.115 1.218 2.66025C1.41 2.25969 1.715 1.93562 2.092 1.73162C2.52 1.5 3.08 1.5 4.2 1.5H15.8C16.92 1.5 17.48 1.5 17.907 1.73162C18.284 1.93562 18.59 2.25969 18.782 2.66025C19 3.11394 19 3.70894 19 4.89681V15.1032C19 16.2911 19 16.885 18.782 17.3387C18.59 17.7389 18.2837 18.0644 17.907 18.2684C17.48 18.5 16.921 18.5 15.803 18.5H4.197C3.079 18.5 2.519 18.5 2.092 18.2684C1.71558 18.0643 1.40963 17.7389 1.218 17.3387C1 16.885 1 16.29 1 15.1Z" stroke="black" stroke-width="2" stroke-linecap="round" stroke-linejoin="round"/>
</svg>
