<svg width="24" height="24" viewBox="0 0 24 24" fill="none" xmlns="http://www.w3.org/2000/svg">
<path d="M14.263 20.344L20.344 14.263C21.136 13.471 21.532 13.075 21.68 12.618C21.81 12.216 21.81 11.784 21.68 11.383C21.532 10.926 21.136 10.529 20.344 9.73704L14.262 3.65504C13.47 2.86404 13.075 2.46804 12.618 2.32004C12.2163 2.18954 11.7836 2.18954 11.382 2.32004C10.926 2.46804 10.529 2.86504 9.73797 3.65604L3.65597 9.73704C2.86397 10.529 2.46797 10.926 2.31997 11.383C2.18997 11.784 2.18997 12.216 2.31997 12.618C2.46797 13.074 2.86397 13.47 3.65497 14.262L9.74097 20.348C10.531 21.138 10.926 21.533 11.382 21.681C11.7836 21.8115 12.2163 21.8115 12.618 21.681C13.075 21.532 13.471 21.137 14.262 20.345L14.263 20.344Z" stroke="black" stroke-width="2" stroke-linecap="round" stroke-linejoin="round"/>
</svg>
