<svg width="56" height="56" viewBox="0 0 56 56" fill="none" xmlns="http://www.w3.org/2000/svg">
<path d="M37.2469 22.9972C37.3879 22.9269 37.5416 22.8858 37.6988 22.8765C37.8561 22.8672 38.0136 22.8898 38.1618 22.943C38.3101 22.9962 38.446 23.0789 38.5615 23.1861C38.6769 23.2932 38.7695 23.4227 38.8336 23.5666L48.6172 45.5046C50.1736 48.9929 46.7156 52.6142 43.4792 50.8852L29.7032 43.5306C28.6299 42.9589 27.3699 42.9589 26.2989 43.5306L12.5229 50.8852C9.28658 52.6142 5.82858 48.9952 7.38491 45.5046L11.0529 37.2796C11.493 36.2932 12.2615 35.49 13.2276 35.0069L37.2469 22.9972Z" fill="#3440B1"/>
<path opacity="0.5" d="M35.9098 19.7536C36.179 19.6196 36.3861 19.3867 36.4879 19.1037C36.5896 18.8207 36.5781 18.5093 36.4558 18.2346L31.4368 6.98089C30.0601 3.89389 25.9418 3.89389 24.5651 6.98089L15.3064 27.7429C15.2085 27.9625 15.1808 28.2069 15.2271 28.4428C15.2734 28.6787 15.3915 28.8946 15.5651 29.0608C15.7388 29.2271 15.9596 29.3356 16.1973 29.3716C16.435 29.4076 16.678 29.3693 16.8931 29.2619L35.9098 19.7536Z" fill="#3440B1"/>
</svg>
